<svg width="48" height="48" viewBox="0 0 48 48" xmlns="http://www.w3.org/2000/svg" xmlns:xlink="http://www.w3.org/1999/xlink"><title>48/groups-gray</title><defs><path d="M37.72 6c-5.849 0-11 3.616-11 12.5s4.243 11.781 5.165 13.792c.922 2.01.835 2.52-4.12 4.172-4.956 1.68-4.764 4.016-4.764 4.016" id="a"/><path d="M23 6c-5.807 0-11 3.616-11 12.5s4.291 11.781 5.207 13.792c.915 2.01.83 2.52-4.09 4.172-4.921 1.68-4.837 4.016-4.837 4.016" id="b"/><circle id="c" cx="23" cy="23" r="23"/><path d="M35.042 37s-.58-2.152 2.552-3.151c3.131-1 3.631-1.532 2.29-2.849-1.343-1.317-2.852-4-2.852-8 0-6 3.979-7 5.968-7" id="d"/><path d="M5.042 37s-.58-2.152 2.552-3.151c3.131-1 3.631-1.532 2.29-2.849-1.343-1.317-2.852-4-2.852-8 0-6 3.979-7 5.968-7" id="e"/></defs><g fill="none" fill-rule="evenodd"><path d="M0 0h48v48H0z"/><g stroke-linecap="round" stroke-width="2" stroke-linejoin="round"><g transform="matrix(-1 0 0 1 61.72 1)"><use stroke="#0085FF" xlink:href="#a"/><use stroke-opacity=".75" stroke="#000" xlink:href="#a"/></g><g transform="translate(1 1)"><use stroke="#0085FF" xlink:href="#b"/><use stroke-opacity=".75" stroke="#000" xlink:href="#b"/></g><g transform="translate(1 1)"><use stroke="#0085FF" xlink:href="#c"/><use stroke-opacity=".75" stroke="#000" xlink:href="#c"/></g></g><g stroke-linecap="round" stroke-linejoin="round" transform="matrix(-1 0 0 1 78 0)" stroke-width="2"><use stroke="#0085FF" xlink:href="#d"/><use stroke-opacity=".75" stroke="#000" xlink:href="#d"/></g><g stroke-linecap="round" stroke-linejoin="round" stroke-width="2"><use stroke="#0085FF" xlink:href="#e"/><use stroke-opacity=".75" stroke="#000" xlink:href="#e"/></g></g></svg>