<svg width="32" height="32" viewBox="0 0 32 32" xmlns="http://www.w3.org/2000/svg"><title>32/position-gray</title><g fill="none" fill-rule="evenodd"><path d="M0 0h32v32H0z"/><path d="M18 17h12m-12-4h12M18 9h11M16 1c8.284 0 15 6.716 15 15 0 8.284-6.716 15-15 15-8.284 0-15-6.716-15-15C1 7.716 7.716 1 16 1z" stroke="#9CA6B0" stroke-width="2" stroke-linecap="round" stroke-linejoin="round"/><path d="M19 30c0-2-4.32-4.447-7.5-5.5C8.339 23.428 8.412 23.264 9 22c.588-1.283 4-3.353 4-9 0-5.667-3.269-8-7-8" stroke="#9CA6B0" stroke-width="2" stroke-linecap="round" stroke-linejoin="round"/></g></svg>