<svg width="48" height="48" viewBox="0 0 48 48" xmlns="http://www.w3.org/2000/svg"><title>48/user-blue</title><g fill="none" fill-rule="evenodd"><path d="M0 0h48v48H0z"/><g transform="translate(1 1)" stroke="#0085FF" stroke-width="2" stroke-linecap="round" stroke-linejoin="round"><path d="M23 6c5.849 0 11 3.616 11 12.5s-4.243 11.781-5.165 13.792c-.922 2.01-.835 2.52 4.12 4.172 4.956 1.68 4.764 4.016 4.764 4.016M23 6c-5.807 0-11 3.616-11 12.5s4.291 11.781 5.207 13.792c.915 2.01.83 2.52-4.09 4.172-4.921 1.68-4.837 4.016-4.837 4.016"/><circle cx="23" cy="23" r="23"/></g></g></svg>